<svg width="24" height="24" viewBox="0 0 24 24" fill="none" xmlns="http://www.w3.org/2000/svg">
<path fill-rule="evenodd" clip-rule="evenodd" d="M9.99294 12.2783C9.99243 11.1307 10.3412 10.0187 10.9792 9.13369C11.6172 8.24868 12.5046 7.64595 13.4887 7.42918C14.4729 7.21241 15.4922 7.39516 16.3714 7.94598C17.2506 8.49681 17.9346 9.38128 18.3059 10.4472C18.718 10.3931 19.1355 10.4486 19.5257 10.6095C19.916 10.7704 20.2685 11.0324 20.5559 11.375C20.8432 11.7176 21.0576 12.1315 21.1823 12.5845C21.3069 13.0376 21.3386 13.5175 21.2747 13.9868C21.8979 14.3879 22.3874 15.0142 22.6667 15.7678C22.946 16.5213 22.9992 17.3597 22.8181 18.1516C22.637 18.9435 22.2317 19.6444 21.6657 20.1445C21.0998 20.6445 20.405 20.9157 19.6901 20.9154H11.6091C10.7512 20.9159 9.91883 20.5813 9.24933 19.967C8.57983 19.3527 8.11324 18.4953 7.92659 17.5364C7.73993 16.5775 7.84436 15.5744 8.22265 14.6926C8.60093 13.8109 9.23045 13.1031 10.0073 12.6863C9.99766 12.5506 9.99287 12.4145 9.99294 12.2783Z" fill="white"/>
<path d="M8.87326 1.90527C9.02035 1.90527 9.16141 1.97218 9.26541 2.09128C9.36941 2.21038 9.42784 2.37192 9.42784 2.54035V4.4456C9.42784 4.61403 9.36941 4.77557 9.26541 4.89467C9.16141 5.01377 9.02035 5.08068 8.87326 5.08068C8.72618 5.08068 8.58512 5.01377 8.48112 4.89467C8.37712 4.77557 8.31869 4.61403 8.31869 4.4456V2.54035C8.31869 2.37192 8.37712 2.21038 8.48112 2.09128C8.58512 1.97218 8.72618 1.90527 8.87326 1.90527ZM5.5458 10.1613C5.5458 9.15072 5.89637 8.18151 6.52039 7.4669C7.14441 6.7523 7.99077 6.35084 8.87326 6.35084C9.75576 6.35084 10.6021 6.7523 11.2261 7.4669C11.8502 8.18151 12.2007 9.15072 12.2007 10.1613C12.2007 11.1719 11.8502 12.1411 11.2261 12.8557C10.6021 13.5703 9.75576 13.9718 8.87326 13.9718C7.99077 13.9718 7.14441 13.5703 6.52039 12.8557C5.89637 12.1411 5.5458 11.1719 5.5458 10.1613ZM13.9709 5.22124C14.0689 5.10085 14.1222 4.94162 14.1197 4.77709C14.1172 4.61256 14.059 4.45558 13.9574 4.33922C13.8557 4.22286 13.7187 4.15621 13.575 4.15331C13.4313 4.15041 13.2923 4.21148 13.1871 4.32366L12.0107 5.67003C11.9577 5.72859 11.9154 5.79864 11.8863 5.87611C11.8572 5.95358 11.8419 6.0369 11.8412 6.12123C11.8406 6.20555 11.8545 6.28919 11.8824 6.36725C11.9103 6.44531 11.9514 6.51624 12.0034 6.5759C12.0555 6.63556 12.1174 6.68275 12.1855 6.71472C12.2537 6.74669 12.3267 6.76279 12.4003 6.7621C12.474 6.76141 12.5468 6.74393 12.6144 6.71068C12.6821 6.67744 12.7433 6.62909 12.7945 6.56846L13.9709 5.22124ZM16.0828 10.1613C16.0828 10.3298 16.0243 10.4913 15.9203 10.6104C15.8163 10.7295 15.6753 10.7964 15.5282 10.7964H13.8645C13.7174 10.7964 13.5763 10.7295 13.4723 10.6104C13.3683 10.4913 13.3099 10.3298 13.3099 10.1613C13.3099 9.99289 13.3683 9.83135 13.4723 9.71225C13.5763 9.59315 13.7174 9.52624 13.8645 9.52624H15.5282C15.6753 9.52624 15.8163 9.59315 15.9203 9.71225C16.0243 9.83135 16.0828 9.99289 16.0828 10.1613ZM13.1871 15.999C13.2923 16.1112 13.4313 16.1722 13.575 16.1693C13.7187 16.1664 13.8557 16.0998 13.9574 15.9834C14.059 15.8671 14.1172 15.7101 14.1197 15.5456C14.1222 15.381 14.0689 15.2218 13.9709 15.1014L12.7952 13.7542C12.7441 13.6935 12.6829 13.6451 12.6153 13.6118C12.5476 13.5784 12.4749 13.5609 12.4012 13.5601C12.3276 13.5593 12.2546 13.5754 12.1864 13.6073C12.1182 13.6392 12.0563 13.6863 12.0042 13.7459C11.9521 13.8055 11.9109 13.8764 11.883 13.9544C11.8551 14.0324 11.841 14.1161 11.8416 14.2004C11.8422 14.2847 11.8575 14.3681 11.8865 14.4456C11.9155 14.5231 11.9578 14.5932 12.0107 14.6518L13.1871 15.999ZM8.87326 15.242C9.02035 15.242 9.16141 15.3089 9.26541 15.428C9.36941 15.5471 9.42784 15.7086 9.42784 15.877V17.7823C9.42784 17.9507 9.36941 18.1123 9.26541 18.2314C9.16141 18.3505 9.02035 18.4174 8.87326 18.4174C8.72618 18.4174 8.58512 18.3505 8.48112 18.2314C8.37712 18.1123 8.31869 17.9507 8.31869 17.7823V15.877C8.31869 15.7086 8.37712 15.5471 8.48112 15.428C8.58512 15.3089 8.72618 15.242 8.87326 15.242ZM5.73657 14.6518C5.83755 14.5319 5.89338 14.3715 5.89205 14.205C5.89072 14.0384 5.83233 13.8792 5.72945 13.7615C5.62658 13.6438 5.48746 13.5771 5.34205 13.5757C5.19664 13.5744 5.05658 13.6384 4.95203 13.7542L3.77559 15.1006C3.67452 15.2203 3.61855 15.3807 3.61975 15.5472C3.62094 15.7137 3.6792 15.873 3.78197 15.9908C3.88475 16.1086 4.02382 16.1755 4.16923 16.177C4.31464 16.1785 4.45475 16.1146 4.55939 15.999L5.73583 14.6526L5.73657 14.6518ZM4.43664 10.1613C4.43664 10.3298 4.37822 10.4913 4.27421 10.6104C4.17021 10.7295 4.02915 10.7964 3.88207 10.7964H2.21833C2.07125 10.7964 1.93019 10.7295 1.82619 10.6104C1.72219 10.4913 1.66376 10.3298 1.66376 10.1613C1.66376 9.99289 1.72219 9.83135 1.82619 9.71225C1.93019 9.59315 2.07125 9.52624 2.21833 9.52624H3.88207C4.02915 9.52624 4.17021 9.59315 4.27421 9.71225C4.37822 9.83135 4.43664 9.99289 4.43664 10.1613ZM4.95203 6.56846C5.05716 6.68064 5.19621 6.74171 5.33988 6.73881C5.48356 6.73591 5.62064 6.66925 5.72225 6.5529C5.82385 6.43654 5.88206 6.27956 5.88459 6.11503C5.88713 5.9505 5.8338 5.79127 5.73583 5.67088L4.56013 4.32366C4.45558 4.20792 4.31552 4.14383 4.17011 4.1452C4.0247 4.14656 3.88558 4.21328 3.78271 4.33097C3.67984 4.44867 3.62145 4.60792 3.62011 4.77444C3.61878 4.94096 3.67462 5.10141 3.77559 5.22124L4.95203 6.56846Z" fill="white"/>
</svg>
